<svg width="26" height="30" xmlns="http://www.w3.org/2000/svg" xmlns:xlink="http://www.w3.org/1999/xlink" xmlns:svgjs="http://svgjs.com/svgjs" viewBox="0.167 0 25.666 30" fill="#757575"><svg xmlns="http://www.w3.org/2000/svg" width="26" height="30" viewBox="1.649 1.836 23.675 27.672"><path paint-order="stroke fill markers" fill-rule="evenodd" d="M23.64 10.508c-.93 0-1.684.765-1.684 1.71V18.9c0 .944.754 1.71 1.684 1.71.93 0 1.684-.766 1.684-1.71v-6.683c0-.944-.754-1.71-1.684-1.71zm-20.308 0c-.93 0-1.683.765-1.683 1.71V18.9c0 .944.754 1.71 1.683 1.71.93 0 1.684-.766 1.684-1.71v-6.683c0-.944-.754-1.71-1.684-1.71zm2.697.051v12.209c0 .725.588 1.312 1.313 1.312h1.5v3.718c0 .945.754 1.71 1.684 1.71.93 0 1.683-.765 1.683-1.71V24.08h2.62v3.718c0 .945.755 1.71 1.684 1.71.93 0 1.684-.765 1.684-1.71V24.08h1.5c.725 0 1.313-.587 1.313-1.312V10.559H6.03zm11.008-6.326l1.384-2.009c.082-.12.062-.276-.046-.35-.107-.074-.26-.037-.342.082l-1.438 2.087c-.948-.373-2-.581-3.109-.581a8.473 8.473 0 0 0-3.108.581L8.94 1.956c-.082-.12-.236-.156-.343-.082-.107.074-.128.23-.046.35l1.384 2.01c-2.2 1.023-3.743 2.968-3.94 5.237h14.982c-.197-2.27-1.74-4.214-3.94-5.238zM10.326 7.4a.828.828 0 1 1 0-1.657.828.828 0 0 1 0 1.657zm6.424 0a.829.829 0 1 1 0-1.658.829.829 0 0 1 0 1.658z"/></svg></svg>