<svg width="67" height="45" xmlns="http://www.w3.org/2000/svg" xmlns:xlink="http://www.w3.org/1999/xlink" xmlns:svgjs="http://svgjs.com/svgjs" viewBox="0 0.168 67 44.665" fill="#675190"><svg xmlns="http://www.w3.org/2000/svg" width="67" height="45" viewBox="1.999 2 66 43.998"><path paint-order="stroke fill markers" fill-rule="evenodd" d="M18.373 21.93l-3.535 1.44v7.148c0 1.102.894 1.997 1.995 1.997h21.783l-3.697-3.699H18.534v-6.952l-.161.065zm35.81 18.705l8.776-8.78c.84-.84.658-2.39-.409-3.457l-5.052-5.053a3.673 3.673 0 0 0-.189-.229l-3.505-3.528-.475-.472c-.69-.692-1.559-1.03-2.297-.97-.007 0-.014 0-.022.002a1.793 1.793 0 0 0-.529.126c-.019.007-.037.018-.056.026a1.816 1.816 0 0 0-.233.135 1.442 1.442 0 0 0-.185.152l-.006.005-.498.498c-.542.542-.584 1.425-.21 2.276-.848-.377-1.73-.334-2.272.207l-.498.498c-.54.54-.582 1.423-.206 2.272-.85-.375-1.732-.333-2.275.21l-.497.497-.005.007a1.507 1.507 0 0 0-.287.418c-.008.02-.019.037-.027.057-.033.078-.06.159-.08.243l-.007.035a1.847 1.847 0 0 0-.039.251c-.002.007-.002.014-.002.022-.036.451.078.952.33 1.43l-4.556-4.557-.31-.307-.435-.438c-.81-.81-1.918-1.061-2.724-.687-.012.005-.024.012-.035.018a1.796 1.796 0 0 0-.182.104c-.02.014-.042.027-.061.042a1.57 1.57 0 0 0-.186.156l-.007.005-.503.503a1.501 1.501 0 0 0-.161.194c-.016.019-.028.04-.042.06-.038.059-.073.12-.104.182-.006.012-.013.023-.018.036-.373.806-.123 1.915.687 2.725l.437.436.307.309 9.575 9.578-2.812-.145-.48-.012-.68-.021c-1.262-.037-2.341.621-2.706 1.56-.006.013-.01.028-.014.041-.028.075-.05.151-.068.228-.006.027-.013.055-.017.083-.017.089-.028.18-.031.272-.002.005-.002.008-.002.012l.032.535v.011a1.73 1.73 0 0 0 .016.275l.013.083c.014.078.031.155.054.231.004.014.007.03.012.044.31.956 1.35 1.676 2.612 1.712l.68.018.48.015 1.638.108.007.002 1.519.049 2.564.085h.092l4.468.304c.672.018 1.222-.266 1.665-.703.01-.01.021-.015.03-.024zM15.76 12.233a5.582 5.582 0 0 1 2.086-.41c.233 0 .462.02.687.05V5.699h33.159V15.95c1.15.13 2.303.695 3.202 1.595l.482.48.012.013V3.997c0-1.101-.895-1.997-1.996-1.997h-36.56c-1.1 0-1.995.896-1.995 1.997v8.602l.283-.107.64-.26zM12.599 30.47l.002-8.589 2.237-.91v.003l2.701-1.101.46-.186.651-.26c1.211-.486 1.961-1.555 1.921-2.59 0-.017-.003-.032-.004-.048a2.044 2.044 0 0 0-.03-.243c-.006-.028-.01-.057-.018-.084a1.908 1.908 0 0 0-.082-.273c0-.004-.002-.007-.003-.01l-.31-.774a1.904 1.904 0 0 0-.134-.263c-.014-.025-.03-.05-.045-.074a1.964 1.964 0 0 0-.147-.196l-.03-.037c-.355-.403-.872-.663-1.454-.755l-.022-.003a3.298 3.298 0 0 0-.203-.023l-.04-.003a3.017 3.017 0 0 0-.19-.007h-.053a2.97 2.97 0 0 0-.416.033l-.072.01a3.2 3.2 0 0 0-.169.034l-.075.016a3.77 3.77 0 0 0-.175.048c-.022.007-.045.012-.067.02-.08.025-.16.053-.24.085l-.652.263-.46.183-.642.255v.006L8.52 17.566c-1.109.447-1.832 1.384-1.912 2.338l-.006.02-.327 10.168c-.018.694.275 1.262.727 1.72.009.01.015.021.024.03l9.061 9.065c.867.868 2.465.68 3.566-.423l5.74-5.742H16.87a4.271 4.271 0 0 1-4.27-4.272zm-6.152 2.202c-.85-.854-2.419-.666-3.5.415-1.08 1.08-1.266 2.648-.411 3.5l8.87 8.876c.853.851 2.42.666 3.5-.415 1.08-1.08 1.267-2.649.415-3.5l-8.874-8.876zm60.602.414c-1.08-1.08-2.647-1.268-3.5-.415l-8.872 8.877c-.853.851-.665 2.42.416 3.5 1.08 1.081 2.647 1.267 3.5.413l8.871-8.874c.852-.853.666-2.42-.415-3.5z"/></svg></svg>