<svg width="25" height="29" xmlns="http://www.w3.org/2000/svg" xmlns:xlink="http://www.w3.org/1999/xlink" xmlns:svgjs="http://svgjs.com/svgjs" viewBox="0.036 0 24.927 29" fill="#757575"><svg xmlns="http://www.w3.org/2000/svg" width="25" height="29" viewBox="2.628 1.399 23.162 26.947"><path paint-order="stroke fill markers" fill-rule="evenodd" d="M25.004 10.44c-1.39-1.73-3.339-2.732-5.178-2.732-2.434 0-3.463 1.156-5.151 1.156-1.74 0-3.064-1.154-5.17-1.154-2.067 0-4.265 1.255-5.66 3.401-1.96 3.02-1.628 8.7 1.552 13.54 1.137 1.73 2.656 3.677 4.643 3.695 1.765.016 2.265-1.127 4.66-1.14 2.395-.013 2.848 1.152 4.614 1.136 1.985-.02 3.588-2.174 4.725-3.905.815-1.24 1.118-1.866 1.751-3.269-4.598-1.737-5.337-8.234-.786-10.727zM17.98 5.775c.884-1.135 1.555-2.737 1.311-4.375-1.444.1-3.133 1.019-4.12 2.216-.895 1.088-1.634 2.7-1.347 4.268 1.577.048 3.209-.893 4.156-2.11z"/></svg></svg>