<svg width="31" height="32" xmlns="http://www.w3.org/2000/svg" xmlns:xlink="http://www.w3.org/1999/xlink" xmlns:svgjs="http://svgjs.com/svgjs" viewBox="0 0.732 31 30.536" fill="#fff"><svg xmlns="http://www.w3.org/2000/svg" width="31" height="32" viewBox="1 1.945 29.918 29.47"><path paint-order="stroke fill markers" fill-rule="evenodd" d="M17.434 20.942h-6.606c-3.502 0-6.348-2.824-6.348-6.297V6.69c-.788.21-1.51.603-2.105 1.188A4.618 4.618 0 0 0 1 11.182v8.027c0 1.248.486 2.422 1.375 3.305a4.7 4.7 0 0 0 3.333 1.369h.106c.03.34.053 1.523.053 2.866v3.271c0 1.543.836 1.856 1.86.691l4.258-4.836a306.96 306.96 0 0 1 1.762-1.992h6.28l-1.325-1.507c-.478-.543-.926-1.048-1.268-1.434zM29.542 3.315a4.693 4.693 0 0 0-3.335-1.37h-15.38a4.69 4.69 0 0 0-3.332 1.37 4.604 4.604 0 0 0-1.38 3.303v8.028c0 2.578 2.114 4.674 4.712 4.674h7.344c.307.344.993 1.114 1.765 1.99l4.252 4.838c1.028 1.166 1.859.854 1.859-.692v-3.27c0-1.343.028-2.526.061-2.866h.1a4.7 4.7 0 0 0 3.334-1.368 4.64 4.64 0 0 0 1.377-3.306V6.618c0-1.248-.49-2.42-1.377-3.303zM13.504 12.9c-1.05 0-1.906-.846-1.906-1.885 0-1.044.856-1.896 1.906-1.896 1.052 0 1.908.852 1.908 1.896 0 1.039-.856 1.885-1.908 1.885zm5.31-.002c-1.05 0-1.907-.844-1.907-1.884 0-1.044.856-1.895 1.907-1.895 1.053 0 1.91.85 1.91 1.895 0 1.04-.857 1.884-1.91 1.884zm5.307.002a1.897 1.897 0 0 1-1.902-1.886 1.906 1.906 0 0 1 3.81 0c0 1.04-.857 1.886-1.908 1.886z"/></svg></svg>