<svg width="31" height="31" xmlns="http://www.w3.org/2000/svg" xmlns:xlink="http://www.w3.org/1999/xlink" xmlns:svgjs="http://svgjs.com/svgjs" viewBox="0.252 0 30.496 31" fill="#5c5c5c"><svg xmlns="http://www.w3.org/2000/svg" width="31" height="31" viewBox="1.006 1.998 29.518 30.006"><path paint-order="stroke fill markers" fill-rule="evenodd" d="M15.765 1.998C7.614 1.998 1.005 8.716 1.005 17c0 8.286 6.609 15.003 14.76 15.003 8.15 0 14.759-6.717 14.759-15.003 0-8.285-6.608-15.003-14.76-15.003zm3.907 14.94h-2.556v9.266h-3.788v-9.266h-1.802v-3.271h1.802v-2.12c0-1.517.708-3.885 3.823-3.885l2.805.01v3.178h-2.037c-.332 0-.803.169-.803.89v1.927h2.888l-.332 3.271z"/></svg></svg>