<svg width="57" height="55" xmlns="http://www.w3.org/2000/svg" xmlns:xlink="http://www.w3.org/1999/xlink" xmlns:svgjs="http://svgjs.com/svgjs" viewBox="0 0.026 57 54.947" fill="#675190"><svg xmlns="http://www.w3.org/2000/svg" width="57" height="55" viewBox="1.995 1.013 56.017 54"><path paint-order="stroke fill markers" fill-rule="evenodd" d="M30.01 1.013c-15.477 0-28.015 12.751-28.015 28.5 0 10.113 5.18 18.992 12.984 24.054C8.366 48.568 4.05 40.372 4.035 31.093 4.06 15.853 15.66 3.54 30.011 3.515c14.341.025 25.936 12.338 25.96 27.578-.014 9.283-4.334 17.483-10.95 22.482 7.807-5.061 12.99-13.944 12.99-24.062 0-15.749-12.537-28.5-28-28.5zm-.192 8.314c-10.476 0-18.972 8.637-18.972 19.305a19.376 19.376 0 0 0 8.065 15.782c-3.778-3.363-6.186-8.433-6.195-14.11.016-10.133 7.659-18.32 17.106-18.341 9.445.02 17.087 8.208 17.104 18.342-.01 5.66-2.405 10.717-6.164 14.08a19.387 19.387 0 0 0 8.026-15.753c-.004-10.668-8.495-19.305-18.97-19.305zm-.027 7.698c-6.34 0-11.476 5.227-11.478 11.68a11.752 11.752 0 0 0 3.315 8.204 11.725 11.725 0 0 1-1.993-6.57c.008-6.104 4.51-11.039 10.08-11.052 5.565.013 10.067 4.948 10.076 11.052-.004 2.649-.857 5.078-2.273 6.981a11.731 11.731 0 0 0 3.746-8.615c0-6.453-5.136-11.68-11.473-11.68zm5.982 15.043c0-3.961-2.767-5.759-6.181-5.759-3.416 0-6.184 1.798-6.184 5.759 0 .633.08 1.242.21 1.826.002.005 0 .01 0 .014l2.653 19.984c.095.617.611 1.12 1.15 1.12h4.34c.538 0 1.055-.503 1.147-1.119l2.666-19.985c.002-.02-.005-.034-.003-.051.126-.574.202-1.17.202-1.789z"/></svg></svg>