<svg width="16" height="25" xmlns="http://www.w3.org/2000/svg" xmlns:xlink="http://www.w3.org/1999/xlink" xmlns:svgjs="http://svgjs.com/svgjs" viewBox="0.187 0 15.625 25" fill="#84b82a"><svg xmlns="http://www.w3.org/2000/svg" width="16" height="25" viewBox="2 2 15 24"><path paint-order="stroke fill markers" fill-rule="evenodd" d="M14.878 2H4.121C2.955 2 2 2.977 2 4.172v19.655C2 25.022 2.955 26 4.121 26h10.757C16.045 26 17 25.022 17 23.827V4.172C17 2.977 16.045 2 14.878 2zM7.993 3.558h2.976c.166 0 .303.124.303.276 0 .152-.137.276-.303.276H7.993c-.166 0-.303-.124-.303-.276 0-.152.137-.276.303-.276zm1.488 21.334a.725.725 0 0 1-.716-.734c0-.405.32-.733.716-.733.395 0 .716.328.716.733 0 .405-.32.734-.716.734zm5.516-2.39H3.965V5.497h11.032v17.005z"/></svg></svg>