<svg width="16" height="31" xmlns="http://www.w3.org/2000/svg" xmlns:xlink="http://www.w3.org/1999/xlink" xmlns:svgjs="http://svgjs.com/svgjs" viewBox="0.247 0 15.506 31" fill="#fff"><svg xmlns="http://www.w3.org/2000/svg" width="16" height="31" viewBox="1.002 1.009 14.996 29.981"><path paint-order="stroke fill markers" fill-rule="evenodd" d="M1.002 18.008v5.147c0 4.328 3.357 7.835 7.498 7.835s7.498-3.507 7.498-7.835v-5.034c-1.915 1.007-7.149 2.945-14.996-.113zm8.463-10.95c-.007-1.315 1.687-1.404 1.687-1.404 5.113 0 4.444-4.645 4.444-4.645H14.08c0 3.836-3.277 3.423-3.277 3.423-2.762 0-3.345 1.6-3.43 2.651-3.606.57-6.371 3.814-6.371 7.738v2.186c2.414 1.025 8.955 3.192 14.996-.003v-2.183c0-3.985-2.85-7.267-6.533-7.764zm.332 7.45c0 .75-.583 1.359-1.297 1.359-.716 0-1.298-.609-1.298-1.358v-3.71c0-.748.582-1.357 1.298-1.357.716 0 1.297.609 1.297 1.356v3.71z"/></svg></svg>