<svg width="29" height="57" xmlns="http://www.w3.org/2000/svg" xmlns:xlink="http://www.w3.org/1999/xlink" xmlns:svgjs="http://svgjs.com/svgjs" viewBox="0.259 0 28.481 57" fill="#675190"><svg xmlns="http://www.w3.org/2000/svg" width="29" height="57" viewBox="1.004 1.989 27.993 56.022"><path paint-order="stroke fill markers" fill-rule="evenodd" d="M1.004 33.752v9.618c0 8.086 6.266 14.64 13.996 14.64s13.996-6.554 13.996-14.64v-9.406c-3.574 1.88-13.344 5.503-27.992-.212zM16.8 13.29c-.012-2.456 3.149-2.622 3.149-2.622 9.544 0 8.297-8.679 8.297-8.679h-2.832c0 7.167-6.116 6.396-6.116 6.396-5.156 0-6.243 2.988-6.404 4.953-6.73 1.067-11.891 7.127-11.891 14.458v4.086c4.505 1.916 16.716 5.964 27.992-.005v-4.08c0-7.446-5.318-13.579-12.195-14.507zm.62 13.923c0 1.401-1.087 2.538-2.421 2.538-1.337 0-2.422-1.137-2.422-2.538V20.28c0-1.397 1.085-2.533 2.422-2.533 1.337 0 2.42 1.136 2.42 2.533v6.933z"/></svg></svg>