<svg width="44" height="44" xmlns="http://www.w3.org/2000/svg" xmlns:xlink="http://www.w3.org/1999/xlink" xmlns:svgjs="http://svgjs.com/svgjs" fill="#675190"><svg xmlns="http://www.w3.org/2000/svg" width="44" height="44" viewBox="3 3 43 43"><path paint-order="stroke fill markers" fill-rule="evenodd" d="M20.841 28.501c4.172 4.092 9.003 8.003 10.913 6.13 2.734-2.68 4.42-5.016 10.447-.266 6.027 4.753 1.398 7.92-1.25 10.518-3.057 2.997-14.45.158-25.713-10.885C3.978 22.95 1.082 11.777 4.14 8.778 6.789 6.18 10.017 1.641 14.86 7.553c4.845 5.91 2.465 7.564-.27 10.245-1.909 1.874 2.078 6.611 6.25 10.703zm16.78-5.814l-3.916-.077a5.362 5.362 0 0 0 1.338-3.549c0-2.98-2.424-5.396-5.416-5.396-1.374 0-2.629.51-3.584 1.351l-.094-3.903a8.775 8.775 0 0 1 3.678-.804c4.852 0 8.785 3.918 8.785 8.752 0 1.294-.285 2.52-.79 3.626zm8 .159l-3.798-.075c.305-1.087.471-2.231.471-3.415 0-6.995-5.69-12.664-12.71-12.664-1.298 0-2.55.195-3.729.554l-.092-3.796a16.516 16.516 0 0 1 3.82-.45C38.65 3 46 10.322 46 19.356c0 1.197-.133 2.365-.378 3.49z"/></svg></svg>