<svg width="24" height="26" xmlns="http://www.w3.org/2000/svg" xmlns:xlink="http://www.w3.org/1999/xlink" xmlns:svgjs="http://svgjs.com/svgjs" viewBox="0.038 0 23.923 26" fill="#fff"><svg xmlns="http://www.w3.org/2000/svg" width="24" height="26" viewBox="1.002 2.005 22.997 24.994"><path paint-order="stroke fill markers" fill-rule="evenodd" d="M23.036 15.001h-7.072v6.775l-2.937-2.922-3.067 2.922v-6.775H1.964V27h21.072V15zM1.002 13.988h22.997V6.907h-5.462c.283-.115.563-.488.839-.621a22.717 22.717 0 0 0 .782-.392c1.363-.722 3.035-1.895 1.756-3.371-.632-.73-1.872-.523-2.691-.361a10.33 10.33 0 0 0-2.476.815 10.67 10.67 0 0 0-3.973 3.298c-.046.062-.092.123-.136.186a.832.832 0 0 0-.062.102.805.805 0 0 0-.061-.102l-.136-.186a10.664 10.664 0 0 0-3.974-3.299 10.316 10.316 0 0 0-2.476-.814c-.819-.163-2.059-.37-2.69.36C1.959 4 3.63 5.173 4.994 5.895a22.29 22.29 0 0 0 .783.392c.275.133.555.506.838.62H1.002v7.082zm15.892-9.446c1.032-.555 2.473-1.182 3.676-1.065.724.07-.182.566-.4.702a13.95 13.95 0 0 1-.862.504c-.608.32-1.23.61-1.88.832-.43.147-.862.273-1.298.38-.449.108-.902.197-1.359.262a8.663 8.663 0 0 1 2.123-1.615zm-9.17.973a13.091 13.091 0 0 1-1.879-.832 14 14 0 0 1-.862-.504c-.218-.136-1.124-.633-.4-.702 1.203-.117 2.644.51 3.676 1.065a8.658 8.658 0 0 1 2.123 1.615c-.457-.065-.91-.154-1.36-.263a15.06 15.06 0 0 1-1.298-.379z"/></svg></svg>