<svg width="61" height="59" xmlns="http://www.w3.org/2000/svg" xmlns:xlink="http://www.w3.org/1999/xlink" xmlns:svgjs="http://svgjs.com/svgjs" viewBox="0.194 0 60.613 59" fill="#675190"><svg xmlns="http://www.w3.org/2000/svg" width="61" height="59" viewBox="1.241 1.351 59.065 57.493"><path paint-order="stroke fill markers" fill-rule="evenodd" d="M53.517 15.843H38.48l5.69-6.627a1.354 1.354 0 0 0-.081-1.924 1.396 1.396 0 0 0-1.949.08l-6.23 6.964-7.62-12.334a1.394 1.394 0 0 0-1.895-.454 1.356 1.356 0 0 0-.46 1.872l7.509 12.423H8.031c-3.735 0-6.79 3.017-6.79 6.704v24.48c0 3.687 3.055 6.704 6.79 6.704h45.486c3.734 0 6.789-3.017 6.789-6.703V22.547c0-3.687-3.055-6.704-6.79-6.704zm1.702 30.112c0 1.843-1.528 3.352-3.395 3.352h-42.1c-1.868 0-3.396-1.509-3.396-3.352V23.62c0-1.843 1.528-3.352 3.395-3.352h42.101c1.867 0 3.395 1.509 3.395 3.352v22.336zm-38.535 9.451h27.444c.948 0 1.716.768 1.716 1.716v.006c0 .948-.768 1.716-1.716 1.716H16.684a1.715 1.715 0 0 1-1.715-1.716v-.006c0-.948.768-1.716 1.715-1.716z"/></svg></svg>