<svg width="32" height="31" xmlns="http://www.w3.org/2000/svg" xmlns:xlink="http://www.w3.org/1999/xlink" xmlns:svgjs="http://svgjs.com/svgjs" viewBox="0.752 0 30.496 31" fill="#5c5c5c"><svg xmlns="http://www.w3.org/2000/svg" width="32" height="31" viewBox="1.541 1.998 29.518 30.006"><path paint-order="stroke fill markers" fill-rule="evenodd" d="M16.301 1.998C8.15 1.998 1.541 8.716 1.541 17c0 8.286 6.609 15.003 14.76 15.003S31.06 25.287 31.06 17c0-8.285-6.608-15.003-14.759-15.003zm7.435 11.978c.008.163.01.326.01.49 0 4.996-3.74 10.758-10.582 10.758-2.1 0-4.056-.626-5.702-1.7a7.386 7.386 0 0 0 5.507-1.566c-1.628-.03-3.001-1.123-3.475-2.625a3.65 3.65 0 0 0 1.68-.065c-1.702-.347-2.984-1.876-2.984-3.707v-.048a3.664 3.664 0 0 0 1.685.474 3.798 3.798 0 0 1-1.654-3.148c0-.693.183-1.343.503-1.9 1.835 2.287 4.576 3.792 7.667 3.95a3.848 3.848 0 0 1-.096-.862c0-2.088 1.665-3.78 3.72-3.78 1.07 0 2.036.458 2.714 1.193a7.362 7.362 0 0 0 2.363-.918 3.78 3.78 0 0 1-1.636 2.092 7.356 7.356 0 0 0 2.136-.595 7.628 7.628 0 0 1-1.856 1.957z"/></svg></svg>