<svg width="23" height="22" xmlns="http://www.w3.org/2000/svg" xmlns:xlink="http://www.w3.org/1999/xlink" xmlns:svgjs="http://svgjs.com/svgjs" viewBox="0 0.018 23 21.965" fill="#fff"><svg xmlns="http://www.w3.org/2000/svg" width="23" height="22" viewBox="1.003 1.998 21.994 21.004"><path paint-order="stroke fill markers" fill-rule="evenodd" d="M6.712 12.271l.08-.075.08.075c.701.665 1.478 1.03 2.185 1.03.742 0 1.509-.324 2.217-.939l.06-.05.155.076c.132.121.368.295.475.347l.146.072-.016.016.056.034c.133.08.276.157.44.238.164.074.305.129.455.179.03.01.728.237 1.526.61l.143.044c.757.29 1.077.7 1.089.714 1.176 1.757 1.373 5.594 1.392 6.023-.008.6-.177.756-.222.785-2.635 1.188-6.617 1.496-7.388 1.545l-.021.002-.022-.006a.282.282 0 0 0-.086-.012h-.027c-.21.016-.385.023-.548.023h-.128c-.48-.03-4.773-.312-7.52-1.543-.056-.024-.219-.212-.23-.763 0-.041.142-4.183 1.376-6.03.06-.075.396-.469 1.066-.727.59-.182 2.048-.67 2.846-1.25.034-.021.067-.056.102-.092.058-.064.18-.195.32-.326zm8.212 1.036l-.109-.032a12.956 12.956 0 0 0-.561-.245c.274-.13.499-.257.666-.38a.38.38 0 0 0 .08-.069c.06-.065.14-.153.235-.242l.051-.047.05.048c.524.496 1.104.768 1.632.768.555 0 1.128-.241 1.655-.7l.037-.031.106.052c.098.09.275.219.354.259l.09.044-.01.011.058.034c.1.06.207.118.327.177a3.5 3.5 0 0 0 .34.135c.021.006.537.174 1.133.451l.105.033c.543.209.779.496.802.526.878 1.31 1.02 4.148 1.032 4.464-.006.439-.127.552-.158.571-1.65.744-4.02 1.023-5.017 1.112-.09-1.303-.409-4.371-1.476-5.967l-.045-.055c-.215-.27-.689-.652-1.377-.917zm-.618-4.742l.02-.022a.26.26 0 0 0 .108-.255c-.199-1.2-.07-1.702-.025-1.828.345-1.068 1.433-1.566 1.646-1.654.043-.016.126-.041.214-.056l.027-.007.164-.009.002.012.049-.005a.757.757 0 0 0 .097-.014l.056-.012c.035.001.464.057 1.086.248l.44.152c.796.237 1.165.68 1.233.77.64.731.47 1.832.309 2.424a.257.257 0 0 0 .035.208l.035.046c.045.06.086.302-.053.823a.67.67 0 0 1-.168.37.247.247 0 0 0-.064.135c-.217 1.277-1.353 2.705-2.55 2.705-1.017 0-2.176-1.314-2.384-2.705a.278.278 0 0 0-.068-.142c-.085-.089-.14-.218-.174-.413-.1-.361-.111-.653-.035-.77zM5.461 7.188l.028-.032a.336.336 0 0 0 .139-.326c-.269-1.625-.093-2.3-.033-2.47.467-1.444 1.938-2.118 2.228-2.238.06-.024.172-.058.291-.077l.032-.007.243-.014v.016l.053-.006c.048-.004.095-.012.15-.023l.056-.013c.045 0 .613.072 1.47.336l.59.204c1.077.32 1.578.921 1.67 1.04.866.99.635 2.48.42 3.28a.329.329 0 0 0 .042.267l.048.062c.079.107.109.463-.068 1.123-.035.215-.115.39-.231.506a.34.34 0 0 0-.083.172c-.293 1.728-1.83 3.66-3.45 3.66-1.376 0-2.945-1.778-3.229-3.658a.327.327 0 0 0-.086-.182c-.117-.122-.192-.3-.238-.562-.137-.495-.15-.893-.042-1.058z"/></svg></svg>