<svg width="23" height="23" xmlns="http://www.w3.org/2000/svg" xmlns:xlink="http://www.w3.org/1999/xlink" xmlns:svgjs="http://svgjs.com/svgjs" viewBox="0.041 0 22.918 23" fill="#757575"><svg xmlns="http://www.w3.org/2000/svg" width="23" height="23" viewBox="1.402 1.309 21.415 21.492"><path paint-order="stroke fill markers" fill-rule="evenodd" d="M22.817 1.31c-2.287.317-4.448.618-6.478.901-1.919.267-3.365.521-5.09.761v8.653c1.725-.01 3.171-.021 5.092-.032l6.476-.039V6.435 1.31zM10.256 3.11c-1.59.221-3.48.432-4.918.632l-3.936.549v7.389l3.936-.023 4.918-.027V7.373 3.111zm-8.854 9.297v7.384l3.934.554c1.439.202 3.329.415 4.92.638v-4.256-4.26c-1.591-.01-3.48-.021-4.918-.032l-3.936-.028zm9.848 8.716c1.724.242 3.17.498 5.091.768l6.476.91v-5.118-5.122l-6.476-.046c-1.92-.014-3.367-.028-5.091-.04v8.648z"/></svg></svg>