<svg width="31" height="31" xmlns="http://www.w3.org/2000/svg" xmlns:xlink="http://www.w3.org/1999/xlink" xmlns:svgjs="http://svgjs.com/svgjs" viewBox="0.252 0 30.496 31" fill="#5c5c5c"><svg xmlns="http://www.w3.org/2000/svg" width="31" height="31" viewBox="1.474 1.997 29.518 30.006"><path paint-order="stroke fill markers" fill-rule="evenodd" d="M9.932 18.263h1.069v5.396h1.032v-5.396h1.068v-.919H9.932v.919zm6.342-4.484c.14 0 .25-.038.333-.115a.43.43 0 0 0 .124-.325v-2.797a.332.332 0 0 0-.126-.27.497.497 0 0 0-.331-.106.445.445 0 0 0-.307.105.344.344 0 0 0-.118.271v2.797c0 .14.037.249.11.325.073.077.178.115.315.115zm2.277 5.165a.897.897 0 0 0-.424.11 1.43 1.43 0 0 0-.392.325v-2.035h-.926v6.315h.926v-.357c.12.144.251.249.392.317.139.068.299.101.48.101.27 0 .48-.087.621-.263.144-.177.216-.43.216-.76v-2.585c0-.382-.076-.672-.23-.87-.152-.199-.374-.298-.663-.298zm-.051 3.625c0 .15-.027.256-.08.322-.053.066-.134.098-.247.098a.532.532 0 0 1-.221-.05.76.76 0 0 1-.217-.164v-2.902a.641.641 0 0 1 .189-.143.426.426 0 0 1 .194-.046c.124 0 .22.04.286.12.064.082.096.2.096.36v2.405zm-3.296-.028c-.086.1-.18.182-.284.249a.517.517 0 0 1-.255.097c-.086 0-.149-.024-.189-.074-.037-.049-.056-.128-.056-.238v-3.574h-.916v3.896c0 .278.053.483.16.624.109.138.267.207.48.207.171 0 .349-.047.531-.147a2.06 2.06 0 0 0 .529-.432v.51h.916v-4.658h-.916v3.54zm1.03-20.544C8.081 1.997 1.473 8.715 1.473 17c0 8.287 6.608 15.003 14.76 15.003 8.15 0 14.759-6.716 14.759-15.003 0-8.285-6.609-15.003-14.76-15.003zm2.385 7.41h1.03v3.935c0 .123.023.21.066.263.042.055.113.084.21.084.075 0 .17-.037.287-.109.116-.073.222-.165.318-.278V9.407h1.032v5.132H20.53v-.566a2.177 2.177 0 0 1-.593.477 1.283 1.283 0 0 1-.598.164c-.24 0-.419-.077-.54-.23-.12-.152-.18-.38-.18-.688V9.407zm-3.831 1.174c0-.397.138-.713.416-.951.278-.233.651-.353 1.12-.353.427 0 .776.125 1.05.373.271.247.408.569.408.961v2.65c0 .44-.134.785-.4 1.033-.269.25-.636.374-1.105.374-.451 0-.813-.129-1.083-.384-.27-.26-.406-.607-.406-1.043v-2.66zm-2.81-2.998l.755 2.78h.073l.718-2.78h1.18l-1.352 4.07v2.886h-1.16v-2.757l-1.383-4.199h1.17zm13.51 14.642c0 1.857-1.481 3.363-3.308 3.363H10.687c-1.827 0-3.308-1.506-3.308-3.363v-2.703c0-1.858 1.48-3.363 3.308-3.363H22.18c1.827 0 3.308 1.505 3.308 3.363v2.703zm-4.172-3.34c-.41 0-.743.126-1.002.382-.26.254-.39.584-.39.985v2.095c0 .45.12.802.354 1.057.235.255.559.384.97.384.456 0 .799-.12 1.028-.36.231-.243.344-.603.344-1.081v-.24h-.941v.212c0 .275-.033.453-.092.532-.06.08-.167.12-.318.12-.146 0-.25-.046-.31-.14-.06-.096-.09-.265-.09-.512v-.877h1.751v-1.19c0-.44-.11-.778-.337-1.015-.225-.234-.547-.352-.967-.352zm.363 1.833h-.81v-.471c0-.196.03-.337.094-.418.064-.087.168-.129.315-.129.138 0 .242.042.304.129.064.08.097.222.097.418v.47z"/></svg></svg>